#!OML:ASF I:\Actors\actors\Patient Classification 2\Patient 1\Session 1\actor1.ASF
:FULLY-SPECIFIED
:DEGREES
585
root -0.634341 18.7402 5.51402 9.81491 0.221485 -0.855111
lowerback 26.3771 -3.1849 1.58902
upperback 2.84358 -4.61867 -7.16492
thorax -12.2945 -2.45361 -7.48198
lowerneck -9.41201 -5.38541 -7.88896
upperneck 1.87043 -5.35887 -23.0691
head 1.78105 -3.35012 -6.04052
rclavicle -1.35174e-014 -6.36111e-014
rhumerus 39.0288 24.0636 -49.2593
rradius 131.116
rwrist 25.6119
rhand -15.752 -35.5901
rfingers 7.12502
rthumb 10.4394 294.689
lclavicle -1.35174e-014 -6.36111e-014
lhumerus -34.8615 -13.9638 82.6216
lradius 119.573
lwrist -1.7534
lhand -1.59004 -6.88588
lfingers 7.12502
lthumb 24.0665 21.625
rfemur -7.87127 2.44341 14.4071
rtibia 9.89144
rfoot -20.6562 -14.4495
rtoes -8.95667
lfemur -19.84 0.160265 -12.8709
ltibia 28.235
lfoot -17.9175 6.23947
ltoes -56.3033
586
root -0.633689 18.7397 5.51312 9.79234 0.321645 -0.872974
lowerback 26.4279 -3.16968 1.67167
upperback 2.758 -4.5856 -7.19012
thorax -12.4258 -2.44914 -7.57603
lowerneck -9.50263 -5.38068 -7.84439
upperneck 1.4492 -5.44034 -22.9338
head 1.66322 -3.347 -5.99951
rclavicle 2.46493e-014 2.22639e-014
rhumerus 38.7785 24.0966 -49.5702
rradius 131.017
rwrist 24.791
rhand -17.3031 -34.5748
rfingers 7.12502
rthumb 8.94288 295.635
lclavicle 2.46493e-014 2.22639e-014
lhumerus -34.9294 -14.0818 82.6341
lradius 119.567
lwrist -1.75835
lhand -1.6786 -6.94559
lfingers 7.12502
lthumb 23.9816 21.5765
rfemur -7.79661 2.35096 14.4471
rtibia 9.83284
rfoot -20.6226 -14.4666
rtoes -9.03124
lfemur -19.8357 0.135146 -12.847
ltibia 28.2205
lfoot -17.8616 6.22684
ltoes -56.3804
587
root -0.632608 18.7387 5.51198 9.76952 0.4487 -0.862899
lowerback 26.727 -3.08709 1.53723
upperback 2.52573 -4.51794 -7.05243
thorax -12.8242 -2.41717 -7.36338
lowerneck -9.54755 -5.34391 -7.80404
upperneck 1.11823 -5.45814 -23.0971
head 1.56526 -3.3265 -6.05296
rclavicle -6.91771e-014 -6.20208e-014
rhumerus 38.4068 24.2895 -49.6382
rradius 131.014
rwrist 23.967
rhand -18.5029 -33.7459
rfingers 7.12502
rthumb 7.78497 296.417
lclavicle -6.91771e-014 -6.20208e-014
lhumerus -35.2153 -14.115 82.992
lradius 119.572
lwrist -1.89811
lhand -1.72283 -7.01136
lfingers 7.12502
lthumb 23.9392 21.5163
rfemur -7.69646 2.22667 14.4589
rtibia 9.7359
rfoot -20.6068 -14.444
rtoes -8.93779
lfemur -19.8375 0.0422001 -12.8455
ltibia 28.213
lfoot -17.8248 6.22171
ltoes -56.3255
588
root -0.630278 18.7377 5.51145 9.74994 0.547769 -0.881162
lowerback 26.7051 -3.07474 1.65027
upperback 2.49723 -4.47265 -7.06804
thorax -12.8494 -2.40543 -7.46796
lowerneck -9.63777 -5.2897 -7.76503
upperneck 0.637878 -5.48521 -22.9509
head 1.43461 -3.29081 -6.00495
rclavicle 7.15625e-015 3.33958e-014
rhumerus 38.1472 24.3594 -49.842
rradius 131.118
rwrist 23.5138
rhand -18.8198 -33.2115
rfingers 7.12502
rthumb 7.47905 296.941
lclavicle 7.15625e-015 3.33958e-014
lhumerus -35.2102 -14.1975 83.0173
lradius 119.571
lwrist -1.97152
lhand -1.7945 -7.04941
lfingers 7.12502
lthumb 23.8705 21.4872
rfemur -7.5899 2.13362 14.4889
rtibia 9.60033
rfoot -20.5696 -14.451
rtoes -8.84969
lfemur -19.8363 -0.0443398 -12.8198
ltibia 28.213
lfoot -17.8271 6.21094
ltoes -56.278
589
root -0.628598 18.7378 5.51086 9.74739 0.639906 -0.935612
lowerback 26.7082 -3.07491 1.81106
upperback 2.44764 -4.42951 -7.06816
thorax -12.9152 -2.39835 -7.5824
lowerneck -9.85108 -5.21402 -7.91936
upperneck 0.275599 -5.41186 -22.6313
head 1.37736 -3.22386 -5.87636
rclavicle 1.43125e-014 6.36111e-015
rhumerus 37.8752 24.4698 -49.9914
rradius 131.255
rwrist 23.098
rhand -18.9352 -32.7972
rfingers 7.12502
rthumb 7.36768 297.351
lclavicle 1.43125e-014 6.36111e-015
lhumerus -35.2333 -14.2553 83.0522
lradius 119.567
lwrist -1.99248
lhand -1.82714 -7.03592
lfingers 7.12502
lthumb 23.8392 21.5048
rfemur -7.48714 2.05301 14.5614
rtibia 9.42914
rfoot -20.5079 -14.5078
rtoes -8.92852
lfemur -19.8615 -0.0741507 -12.7551
ltibia 28.2195
lfoot -17.8099 6.14937
ltoes -56.347
590
root -0.627529 18.7375 5.51162 9.75123 0.723434 -0.949486
lowerback 26.7084 -3.07375 1.90414
upperback 2.3909 -4.4051 -7.07095
thorax -12.9858 -2.39628 -7.65262
lowerneck -10.109 -5.18853 -7.78305
upperneck -0.130482 -5.44104 -22.7175
head 1.29123 -3.21195 -5.9278
rclavicle -7.15625e-015 -1.90833e-014
rhumerus 37.7084 24.5811 -50.0879
rradius 131.377
rwrist 22.6398
rhand -18.9993 -32.3291
rfingers 7.12502
rthumb 7.30582 297.817
lclavicle -7.15625e-015 -1.90833e-014
lhumerus -35.2177 -14.235 83.1161
lradius 119.544
lwrist -1.96475
lhand -1.75989 -6.99622
lfingers 7.12502
lthumb 23.9037 21.5361
rfemur -7.3704 1.9732 14.5907
rtibia 9.2272
rfoot -20.4492 -14.555
rtoes -9.00632
lfemur -19.8902 -0.0502121 -12.7343
ltibia 28.235
lfoot -17.7966 6.02283
ltoes -56.3959
591
root -0.62574 18.7364 5.51344 9.76424 0.815985 -0.955003
lowerback 26.6562 -3.06016 1.99638
upperback 2.36567 -4.36094 -7.06856
thorax -12.9871 -2.38262 -7.72293
lowerneck -10.6641 -5.26244 -7.36893
upperneck -0.392381 -5.55653 -23.2307
head 1.27812 -3.2829 -6.17949
rclavicle 7.95139e-016 2.54444e-014
rhumerus 37.6271 24.6035 -50.1427
rradius 131.5
rwrist 22.1766
rhand -19.0215 -31.8177
rfingers 7.12502
rthumb 7.28443 298.328
lclavicle 7.95139e-016 2.54444e-014
lhumerus -35.1271 -14.2673 83.2201
lradius 119.516
lwrist -1.9168
lhand -1.75114 -6.95267
lfingers 7.12502
lthumb 23.9121 21.5785
rfemur -7.26233 1.88133 14.6062
rtibia 9.03017
rfoot -20.3917 -14.5668
rtoes -8.92793
lfemur -19.9229 -0.0360249 -12.7192
ltibia 28.2564
lfoot -17.8282 5.86613
ltoes -56.3115
592
root -0.62421 18.7356 5.51469 9.79757 0.926344 -0.995774
lowerback 26.6547 -3.06079 2.23494
upperback 2.04408 -4.32389 -7.39
thorax -12.8725 -2.31778 -7.6768
lowerneck -11.2972 -5.2983 -6.97561
upperneck -0.40732 -5.5511 -23.6158
head 1.36643 -3.32452 -6.39303
rclavicle 2.14687e-014 -3.33958e-014
rhumerus 37.3421 24.6571 -50.2834
rradius 131.669
rwrist 21.685
rhand -19.0699 -31.3075
rfingers 7.12502
rthumb 7.23763 298.836
lclavicle 2.14687e-014 -3.33958e-014
lhumerus -35.1975 -14.4668 83.2844
lradius 119.508
lwrist -1.92653
lhand -1.78435 -6.95156
lfingers 7.12502
lthumb 23.8802 21.5838
rfemur -7.17689 1.7763 14.661
rtibia 8.8388
rfoot -20.3325 -14.5914
rtoes -8.79155
lfemur -19.9917 -0.0471155 -12.6624
ltibia 28.2862
lfoot -17.8617 5.75965
ltoes -56.2618
593
root -0.622787 18.7356 5.51448 9.83395 1.07476 -1.01245
lowerback 26.7361 -3.09004 2.42115
upperback 1.89732 -4.32587 -7.44228
thorax -13.1007 -2.34018 -7.83917
lowerneck -11.2499 -5.1176 -6.75169
upperneck -0.933755 -5.4656 -23.4531
head 1.20465 -3.22225 -6.35823
rclavicle -6.36111e-015 3.18055e-014
rhumerus 37.0353 24.8221 -50.4382
rradius 131.837
rwrist 21.1208
rhand -19.1517 -30.6396
rfingers 7.12502
rthumb 7.15867 299.502
lclavicle -6.36111e-015 3.18055e-014
lhumerus -35.3419 -14.6194 83.3177
lradius 119.446
lwrist -1.99864
lhand -1.83639 -7.0728
lfingers 7.12502
lthumb 23.8303 21.4691
rfemur -7.08014 1.62919 14.6953
rtibia 8.63227
rfoot -20.2803 -14.63
rtoes -8.62504
lfemur -20.0857 -0.106923 -12.6299
ltibia 28.3231
lfoot -17.8576 5.67664
ltoes -56.2333
594
root -0.620585 18.7362 5.51392 9.87472 1.254 -1.03067
lowerback 26.6312 -3.11181 2.41235
upperback 1.87019 -4.3443 -7.35091
thorax -13.0722 -2.34515 -7.72891
lowerneck -10.6176 -4.75756 -6.73901
upperneck -2.23025 -5.37794 -22.9177
head 0.722398 -2.99908 -6.1329
rclavicle 1.43125e-014 3.18055e-015
rhumerus 37.0912 24.9842 -50.3512
rradius 131.978
rwrist 20.4961
rhand -19.239 -29.9332
rfingers 7.12502
rthumb 7.07449 300.205
lclavicle 1.43125e-014 3.18055e-015
lhumerus -35.2888 -14.5262 83.4737
lradius 119.355
lwrist -2.04359
lhand -1.84566 -7.15109
lfingers 7.12502
lthumb 23.8214 21.392
rfemur -7.0244 1.45211 14.7394
rtibia 8.50505
rfoot -20.272 -14.635
rtoes -8.43327
lfemur -20.1804 -0.221153 -12.5938
ltibia 28.3461
lfoot -17.8432 5.59699
ltoes -56.1723
595
root -0.618755 18.7373 5.51365 9.91151 1.38909 -1.09072
lowerback 26.4906 -3.09599 2.4507
upperback 1.87759 -4.29606 -7.25173
thorax -12.9791 -2.32029 -7.66258
lowerneck -10.3434 -4.50196 -6.5821
upperneck -3.24025 -5.31983 -22.687
head 0.377558 -2.84937 -6.0553
rclavicle 0 -2.22639e-014
rhumerus 37.165 25.0685 -50.2023
rradius 132.132
rwrist 19.8195
rhand -19.2589 -29.5368
rfingers 7.12502
rthumb 7.05523 300.601
lclavicle 0 -2.22639e-014
lhumerus -35.2046 -14.498 83.6784
lradius 119.321
lwrist -2.03352
lhand -1.72758 -7.06315
lfingers 7.12502
lthumb 23.9347 21.4651
rfemur -7.05759 1.32722 14.827
rtibia 8.54192
rfoot -20.3013 -14.6087
rtoes -8.42739
lfemur -20.25 -0.269279 -12.5206
ltibia 28.3407
lfoot -17.8081 5.5459
ltoes -56.2087
596
root -0.617782 18.7383 5.5098 9.90547 1.42338 -1.01813
lowerback 26.5266 -3.02336 2.41988
upperback 1.84071 -4.21283 -7.25451
thorax -13.023 -2.28216 -7.67939
lowerneck -10.4623 -4.3581 -6.32174
upperneck -3.78658 -5.25667 -22.6078
head 0.235511 -2.77214 -6.06644
rclavicle 1.74931e-014 -1.11319e-014
rhumerus 37.074 25.1018 -50.1304
rradius 132.297
rwrist 19.1409
rhand -19.1942 -29.2922
rfingers 7.12502
rthumb 7.11766 300.848
lclavicle 1.74931e-014 -1.11319e-014
lhumerus -35.205 -14.6414 83.8384
lradius 119.301
lwrist -1.99434
lhand -1.60892 -6.94791
lfingers 7.12502
lthumb 24.0484 21.5654
rfemur -7.10587 1.28095 14.7552
rtibia 8.64568
rfoot -20.3272 -14.5901
rtoes -8.49035
lfemur -20.2607 -0.285649 -12.6035
ltibia 28.3196
lfoot -17.7589 5.57283
ltoes -56.2932
597
root -0.616359 18.7379 5.50331 9.87167 1.41337 -0.787941
lowerback 26.645 -2.93173 2.20295
upperback 1.78222 -4.1655 -7.28277
thorax -13.1257 -2.25126 -7.60411
lowerneck -10.6888 -4.18409 -6.35796
upperneck -4.1629 -5.05445 -22.165
head 0.185581 -2.6459 -5.91578
rclavicle 4.53229e-014 8.5875e-014
rhumerus 36.9825 25.1466 -50.0678
rradius 132.454
rwrist 18.5359
rhand -19.1397 -29.0201
rfingers 7.12502
rthumb 7.17033 301.121
lclavicle 4.53229e-014 8.5875e-014
lhumerus -35.2804 -14.7593 84.0046
lradius 119.274
lwrist -1.98484
lhand -1.60042 -6.9302
lfingers 7.12502
lthumb 24.0566 21.582
rfemur -7.11967 1.25116 14.4993
rtibia 8.71716
rfoot -20.3498 -14.568
rtoes -8.40594
lfemur -20.2369 -0.368217 -12.86
ltibia 28.2976
lfoot -17.7623 5.62723
ltoes -56.3171
598
root -0.613999 18.7371 5.5015 9.88158 1.48701 -0.679503
lowerback 26.6746 -2.89473 2.19109
upperback 1.69964 -4.12743 -7.28971
thorax -13.2283 -2.23759 -7.62026
lowerneck -11.0107 -3.99848 -6.54316
upperneck -4.3239 -4.75193 -21.5666
head 0.227478 -2.49475 -5.69452
rclavicle 3.57812e-014 2.54444e-014
rhumerus 36.8471 25.1888 -50.0278
rradius 132.614
rwrist 17.9769
rhand -19.0644 -28.7847
rfingers 7.12502
rthumb 7.24294 301.359
lclavicle 3.57812e-014 2.54444e-014
lhumerus -35.4315 -14.9142 84.1889
lradius 119.245
lwrist -1.99205
lhand -1.7517 -7.02373
lfingers 7.12502
lthumb 23.9115 21.5075
rfemur -7.12946 1.15668 14.3832
rtibia 8.74172
rfoot -20.377 -14.5363
rtoes -8.35356
lfemur -20.2598 -0.48063 -12.9728
ltibia 28.2807
lfoot -17.7886 5.63556
ltoes -56.2977
